# xmcd
#
# Track frame offsets: 
#        150
#        12542
#        23533
#        34988
#        48116
#        57947
#        69506
#        83730
#        96209
#        106584
#        116088
#        126104
#        137394
#        148928
#        160992
#        171973
#        183473
#        194669
#        207589
#        220382
#        233269
#        241110
#
# Disc length: 3307 seconds
#
# Revision: 0
# Processed by: cddbd v1.5.2PL0 Copyright (c) Steve Scherf et al.
# Submitted via: ExactAudioCopy v0.99pb4
#
DISCID=330ce916
DTITLE=Various Artist - The Delta Records Story
DYEAR=2008
DGENRE=R&B
TTITLE0=A Call On The Phone
TTITLE1=Don't Want Nobody Hanging Around
TTITLE2=Saviour Don't Pass Me By
TTITLE3=Jesus Met The Woman At The Well
TTITLE4=Certanly All
TTITLE5=Feelin' Sad 
TTITLE6=Every Monday Morning Blues
TTITLE7=High Tone Mama
TTITLE8=Pay Day Lover
TTITLE9=I Want To Know
TTITLE10=I'm Just A Lucky So And So
TTITLE11=I Need You So
TTITLE12=All Mine
TTITLE13=Just Like You Like It
TTITLE14=At The Soda Shop
TTITLE15=Would You Do The Same For Me
TTITLE16=Bop-Alena
TTITLE17=There Stands The Glass
TTITLE18=It'd Surprise You
TTITLE19=Jinglin' Janglin' Pockets
TTITLE20=Sandy Jane
TTITLE21=Plaster Of Paris
EXTD=
EXTT0=
EXTT1=
EXTT2=
EXTT3=
EXTT4=
EXTT5=
EXTT6=
EXTT7=
EXTT8=
EXTT9=
EXTT10=
EXTT11=
EXTT12=
EXTT13=
EXTT14=
EXTT15=
EXTT16=
EXTT17=
EXTT18=
EXTT19=
EXTT20=
EXTT21=
PLAYORDER=
